# xmcd
#
# Track frame offsets: 
#        150
#        5910
#        23507
#        40022
#        53245
#        68235
#        82852
#        94750
#        113402
#        128142
#        138315
#        151680
#
# Disc length: 2159 seconds
#
# Revision: 0
# Processed by: cddbd v1.5.2PL0 Copyright (c) Steve Scherf et al.
# Submitted via: ExactAudioCopyFreeDBPlugin 1.0
#
DISCID=87086d0c
DTITLE=Big Al Blake - Doctor Blake's Pop-X Magic Soul Elixir
DYEAR=2002
DGENRE=Blues
TTITLE0=Cow Cow Blues
TTITLE1=Long Black Cadillac
TTITLE2=Leavin' California
TTITLE3=Blues For Walter
TTITLE4=All My Life
TTITLE5=Coffee Grindin' Man
TTITLE6=Dr. Blake's Boogie
TTITLE7=Fly Like The Eagle, Cry Like The Dove
TTITLE8=Black Chili Pepper
TTITLE9=A Jalopy To Drive
TTITLE10=Rocky Mountain Blues
TTITLE11=Bye Bye Bird
EXTD=
EXTT0=
EXTT1=
EXTT2=
EXTT3=
EXTT4=
EXTT5=
EXTT6=
EXTT7=
EXTT8=
EXTT9=
EXTT10=
EXTT11=
PLAYORDER=
